<svg width="216" height="32" viewBox="0 0 216 32" fill="none" xmlns="http://www.w3.org/2000/svg">
<g filter="url(#filter0_d_54_7)">
<path d="M37.966 11.0041V21.0001H40.164V16.6881H44.21V21.0001H46.408V11.0041H44.21V14.8401H40.164V11.0041H37.966Z" fill="#34C759"/>
<path d="M50.443 11.0041V21.0001H58.031V19.1521H52.641V16.7021H57.485V14.9941H52.641V12.8521H57.919V11.0041H50.443Z" fill="#34C759"/>
<path d="M64.1411 17.1361L65.4431 13.4681H65.4711L66.7311 17.1361H64.1411ZM64.3511 11.0041L60.5711 21.0001H62.7831L63.5671 18.7741H67.3051L68.0611 21.0001H70.3431L66.6051 11.0041H64.3511Z" fill="#34C759"/>
<path d="M73.3051 11.0041V21.0001H80.3751V19.1521H75.5031V11.0041H73.3051Z" fill="#34C759"/>
<path d="M84.6307 12.8521V21.0001H86.8287V12.8521H89.8247V11.0041H81.6347V12.8521H84.6307Z" fill="#34C759"/>
<path d="M93.0773 11.0041V21.0001H95.2753V16.6881H99.3213V21.0001H101.519V11.0041H99.3213V14.8401H95.2753V11.0041H93.0773Z" fill="#34C759"/>
<path d="M108.144 17.1081V21.0001H110.342V17.1641L114.052 11.0041H111.602L109.278 14.9521L106.94 11.0041H104.476L108.144 17.1081Z" fill="#34C759"/>
<path d="M124.487 17.6821H122.359C122.349 18.2981 122.461 18.8301 122.695 19.2781C122.928 19.7261 123.241 20.0948 123.633 20.3841C124.034 20.6734 124.491 20.8834 125.005 21.0141C125.527 21.1541 126.064 21.2241 126.615 21.2241C127.296 21.2241 127.893 21.1448 128.407 20.9861C128.929 20.8274 129.363 20.6081 129.709 20.3281C130.063 20.0388 130.329 19.6981 130.507 19.3061C130.684 18.9141 130.773 18.4894 130.773 18.0321C130.773 17.4721 130.651 17.0148 130.409 16.6601C130.175 16.2961 129.895 16.0068 129.569 15.7921C129.242 15.5774 128.911 15.4234 128.575 15.3301C128.248 15.2274 127.991 15.1574 127.805 15.1201C127.179 14.9614 126.671 14.8308 126.279 14.7281C125.896 14.6254 125.593 14.5228 125.369 14.4201C125.154 14.3174 125.009 14.2054 124.935 14.0841C124.86 13.9628 124.823 13.8041 124.823 13.6081C124.823 13.3934 124.869 13.2161 124.963 13.0761C125.056 12.9361 125.173 12.8194 125.313 12.7261C125.462 12.6328 125.625 12.5674 125.803 12.5301C125.98 12.4928 126.157 12.4741 126.335 12.4741C126.605 12.4741 126.853 12.4974 127.077 12.5441C127.31 12.5908 127.515 12.6701 127.693 12.7821C127.87 12.8941 128.01 13.0481 128.113 13.2441C128.225 13.4401 128.29 13.6874 128.309 13.9861H130.437C130.437 13.4074 130.325 12.9174 130.101 12.5161C129.886 12.1054 129.592 11.7694 129.219 11.5081C128.845 11.2468 128.416 11.0601 127.931 10.9481C127.455 10.8268 126.955 10.7661 126.433 10.7661C125.985 10.7661 125.537 10.8268 125.089 10.9481C124.641 11.0694 124.239 11.2561 123.885 11.5081C123.53 11.7601 123.241 12.0774 123.017 12.4601C122.802 12.8334 122.695 13.2768 122.695 13.7901C122.695 14.2474 122.779 14.6394 122.947 14.9661C123.124 15.2834 123.353 15.5494 123.633 15.7641C123.913 15.9788 124.23 16.1561 124.585 16.2961C124.939 16.4268 125.303 16.5388 125.677 16.6321C126.041 16.7348 126.4 16.8281 126.755 16.9121C127.109 16.9961 127.427 17.0941 127.707 17.2061C127.987 17.3181 128.211 17.4581 128.379 17.6261C128.556 17.7941 128.645 18.0134 128.645 18.2841C128.645 18.5361 128.579 18.7461 128.449 18.9141C128.318 19.0728 128.155 19.1988 127.959 19.2921C127.763 19.3854 127.553 19.4508 127.329 19.4881C127.105 19.5161 126.895 19.5301 126.699 19.5301C126.409 19.5301 126.129 19.4974 125.859 19.4321C125.588 19.3574 125.35 19.2501 125.145 19.1101C124.949 18.9608 124.79 18.7694 124.669 18.5361C124.547 18.3028 124.487 18.0181 124.487 17.6821Z" fill="#34C759"/>
<path d="M143.7 21.0001L146.388 11.0041H144.232L142.594 17.8921H142.566L140.858 11.0041H138.8L137.064 17.8081H137.036L135.454 11.0041H133.256L135.902 21.0001H138.128L139.794 14.1961H139.822L141.516 21.0001H143.7Z" fill="#34C759"/>
<path d="M149.501 11.0041V21.0001H151.699V11.0041H149.501Z" fill="#34C759"/>
<path d="M157.942 12.8521V21.0001H160.14V12.8521H163.136V11.0041H154.946V12.8521H157.942Z" fill="#34C759"/>
<path d="M173.053 14.3641H175.181C175.115 13.7854 174.957 13.2721 174.705 12.8241C174.453 12.3761 174.131 12.0028 173.739 11.7041C173.356 11.3961 172.917 11.1628 172.423 11.0041C171.937 10.8454 171.419 10.7661 170.869 10.7661C170.103 10.7661 169.413 10.9014 168.797 11.1721C168.19 11.4428 167.677 11.8161 167.257 12.2921C166.837 12.7681 166.515 13.3281 166.291 13.9721C166.067 14.6068 165.955 15.2974 165.955 16.0441C165.955 16.7721 166.067 17.4534 166.291 18.0881C166.515 18.7134 166.837 19.2594 167.257 19.7261C167.677 20.1928 168.19 20.5614 168.797 20.8321C169.413 21.0934 170.103 21.2241 170.869 21.2241C171.485 21.2241 172.049 21.1308 172.563 20.9441C173.076 20.7574 173.524 20.4868 173.907 20.1321C174.289 19.7774 174.597 19.3481 174.831 18.8441C175.064 18.3401 175.209 17.7754 175.265 17.1501H173.137C173.053 17.8221 172.819 18.3634 172.437 18.7741C172.063 19.1848 171.541 19.3901 170.869 19.3901C170.374 19.3901 169.954 19.2968 169.609 19.1101C169.263 18.9141 168.983 18.6574 168.769 18.3401C168.554 18.0228 168.395 17.6681 168.293 17.2761C168.199 16.8748 168.153 16.4641 168.153 16.0441C168.153 15.6054 168.199 15.1808 168.293 14.7701C168.395 14.3594 168.554 13.9954 168.769 13.6781C168.983 13.3514 169.263 13.0948 169.609 12.9081C169.954 12.7121 170.374 12.6141 170.869 12.6141C171.139 12.6141 171.396 12.6608 171.639 12.7541C171.891 12.8381 172.115 12.9594 172.311 13.1181C172.507 13.2768 172.67 13.4634 172.801 13.6781C172.931 13.8834 173.015 14.1121 173.053 14.3641Z" fill="#34C759"/>
<path d="M178.866 11.0041V21.0001H181.064V16.6881H185.11V21.0001H187.308V11.0041H185.11V14.8401H181.064V11.0041H178.866Z" fill="#34C759"/>
<path d="M191.343 11.0041V21.0001H198.931V19.1521H193.541V16.7021H198.385V14.9941H193.541V12.8521H198.819V11.0041H191.343Z" fill="#34C759"/>
<path d="M204.719 15.5261V12.7121H207.127C207.631 12.7121 208.009 12.8241 208.261 13.0481C208.513 13.2628 208.639 13.6128 208.639 14.0981C208.639 14.6021 208.513 14.9661 208.261 15.1901C208.009 15.4141 207.631 15.5261 207.127 15.5261H204.719ZM202.521 11.0041V21.0001H204.719V17.0941H206.917C207.467 17.0941 207.864 17.2154 208.107 17.4581C208.349 17.7008 208.508 18.0834 208.583 18.6061C208.639 19.0074 208.681 19.4274 208.709 19.8661C208.737 20.3048 208.811 20.6828 208.933 21.0001H211.131C211.028 20.8601 210.949 20.6921 210.893 20.4961C210.846 20.2908 210.809 20.0761 210.781 19.8521C210.762 19.6281 210.748 19.4088 210.739 19.1941C210.729 18.9794 210.72 18.7928 210.711 18.6341C210.692 18.3821 210.655 18.1301 210.599 17.8781C210.552 17.6261 210.473 17.3974 210.361 17.1921C210.249 16.9774 210.104 16.7954 209.927 16.6461C209.749 16.4874 209.525 16.3708 209.255 16.2961V16.2681C209.815 16.0441 210.216 15.7174 210.459 15.2881C210.711 14.8588 210.837 14.3501 210.837 13.7621C210.837 13.3794 210.767 13.0248 210.627 12.6981C210.496 12.3621 210.3 12.0681 210.039 11.8161C209.787 11.5641 209.479 11.3681 209.115 11.2281C208.76 11.0788 208.359 11.0041 207.911 11.0041H202.521Z" fill="#34C759"/>
<path d="M21.0984 8.16504H11.9016C7.53781 8.16504 4 11.7088 4 16.0818C4 20.4548 7.53781 24.0001 11.9016 24.0001H21.0984C25.4622 24.0001 29 20.4548 29 16.0818C29 11.7088 25.4622 8.16504 21.0984 8.16504ZM20.9261 23.0922C17.0637 23.0922 13.932 19.9539 13.932 16.0833C13.932 12.2128 17.0637 9.07448 20.9261 9.07448C24.7885 9.07448 27.9202 12.2128 27.9202 16.0833C27.9202 19.9539 24.7885 23.0922 20.9261 23.0922Z" fill="#34C759"/>
<path d="M20.0047 4.68437C20.0047 5.68167 20.2631 6.61732 20.7169 7.42811C18.5112 7.04738 16.833 5.1206 16.833 2.80075C16.833 2.50942 16.8592 2.22426 16.9115 1.9468C17.3421 1.81578 17.8005 1.74487 18.2743 1.74487C19.0895 1.74487 19.8571 1.95451 20.5246 2.32137C20.1908 3.03967 20.0047 3.83967 20.0047 4.68437Z" fill="#34C759"/>
<path d="M26.2067 2.80077C26.2067 4.92023 24.8069 6.71137 22.8827 7.29557C22.552 7.39576 22.2074 7.46204 21.849 7.48516H21.8475C21.2676 6.70366 20.9246 5.7341 20.9246 4.68439C20.9246 4.03391 21.0568 3.41426 21.2953 2.8501C21.9674 1.26243 23.4856 0.123314 25.2838 0C25.8636 0.781503 26.2067 1.75106 26.2067 2.80077Z" fill="#34C759"/>
</g>
<defs>
<filter id="filter0_d_54_7" x="0" y="0" width="215.131" height="32" filterUnits="userSpaceOnUse" color-interpolation-filters="sRGB">
<feFlood flood-opacity="0" result="BackgroundImageFix"/>
<feColorMatrix in="SourceAlpha" type="matrix" values="0 0 0 0 0 0 0 0 0 0 0 0 0 0 0 0 0 0 127 0" result="hardAlpha"/>
<feOffset dy="4"/>
<feGaussianBlur stdDeviation="2"/>
<feComposite in2="hardAlpha" operator="out"/>
<feColorMatrix type="matrix" values="0 0 0 0 0 0 0 0 0 0 0 0 0 0 0 0 0 0 0.25 0"/>
<feBlend mode="normal" in2="BackgroundImageFix" result="effect1_dropShadow_54_7"/>
<feBlend mode="normal" in="SourceGraphic" in2="effect1_dropShadow_54_7" result="shape"/>
</filter>
</defs>
</svg>
