<svg width="48" height="48" viewBox="0 0 48 48" fill="none" xmlns="http://www.w3.org/2000/svg">
<g filter="url(#filter0_d_0_282)">
<path d="M5 20C5 9.50659 13.5066 1 24 1C34.4934 1 43 9.50659 43 20C43 30.4934 34.4934 39 24 39C13.5066 39 5 30.4934 5 20Z" fill="#262626" stroke="#303030" stroke-width="2"/>
<mask id="mask0_0_282" style="mask-type:luminance" maskUnits="userSpaceOnUse" x="15" y="13" width="18" height="15">
<path fill-rule="evenodd" clip-rule="evenodd" d="M32.4 15.1234C31.7819 15.405 31.1182 15.5951 30.4203 15.6796C31.1318 15.2424 31.6785 14.5499 31.9363 13.725C31.2699 14.1294 30.5326 14.4245 29.7476 14.5822C29.1185 13.8957 28.2226 13.4666 27.2306 13.4666C25.327 13.4666 23.7847 15.0486 23.7847 17.0005C23.7847 17.2772 23.8146 17.5476 23.8734 17.806C21.0089 17.6585 18.4693 16.2515 16.7689 14.1132C16.4728 14.6356 16.3026 15.2424 16.3026 15.8902C16.3026 17.1168 16.9113 18.198 17.8355 18.8323C17.271 18.8135 16.7395 18.6552 16.2748 18.3902C16.2743 18.4048 16.2743 18.4204 16.2743 18.4344C16.2743 20.1472 17.4621 21.5758 19.0391 21.9005C18.7503 21.9807 18.4457 22.0243 18.1311 22.0243C17.9085 22.0243 17.6932 22.0022 17.4831 21.9613C17.9211 23.3646 19.1945 24.3866 20.7022 24.4156C19.5233 25.3633 18.0371 25.9292 16.4224 25.9292C16.144 25.9292 15.8694 25.9126 15.6 25.8797C17.125 26.8812 18.9367 27.4666 20.8834 27.4666C27.2227 27.4666 30.6902 22.0814 30.6902 17.4108C30.6902 17.2579 30.686 17.1049 30.6797 16.9531C31.3534 16.455 31.9374 15.8331 32.4 15.1234Z" fill="white"/>
</mask>
<g mask="url(#mask0_0_282)">
<rect x="11.8666" y="7.8667" width="24.2667" height="24.2667" fill="#737373"/>
</g>
</g>
<defs>
<filter id="filter0_d_0_282" x="0" y="0" width="48" height="48" filterUnits="userSpaceOnUse" color-interpolation-filters="sRGB">
<feFlood flood-opacity="0" result="BackgroundImageFix"/>
<feColorMatrix in="SourceAlpha" type="matrix" values="0 0 0 0 0 0 0 0 0 0 0 0 0 0 0 0 0 0 127 0" result="hardAlpha"/>
<feOffset dy="4"/>
<feGaussianBlur stdDeviation="2"/>
<feComposite in2="hardAlpha" operator="out"/>
<feColorMatrix type="matrix" values="0 0 0 0 0 0 0 0 0 0 0 0 0 0 0 0 0 0 0.25 0"/>
<feBlend mode="normal" in2="BackgroundImageFix" result="effect1_dropShadow_0_282"/>
<feBlend mode="normal" in="SourceGraphic" in2="effect1_dropShadow_0_282" result="shape"/>
</filter>
</defs>
</svg>
