<svg width="121" height="36" viewBox="0 0 121 36" fill="none" xmlns="http://www.w3.org/2000/svg">
<path d="M50.5246 10.8496L49.8746 9.24961H46.8546L46.2046 10.8496H45.4046L48.0746 4.34961H48.6546L51.3246 10.8496H50.5246ZM47.1346 8.54961H49.5846L48.3546 5.51961L47.1346 8.54961ZM52.9732 10.8496L51.1632 6.24961H51.9132L53.3332 9.85961L54.7632 6.24961H55.5132L53.6832 10.8496H52.9732ZM59.9833 6.24961H60.7133V10.8496H59.9833V10.0196C59.6333 10.5696 59.0533 10.9296 58.2733 10.9296C56.9633 10.9296 56.0333 9.91961 56.0333 8.54961C56.0333 7.16961 56.9633 6.17961 58.2733 6.17961C59.0533 6.17961 59.6333 6.52961 59.9833 7.07961V6.24961ZM58.3633 10.2396C59.3533 10.2396 59.9833 9.52961 59.9833 8.54961C59.9833 7.56961 59.3533 6.86961 58.3633 6.86961C57.3833 6.86961 56.7333 7.56961 56.7333 8.54961C56.7333 9.52961 57.3833 10.2396 58.3633 10.2396ZM62.4043 5.26961C62.1843 5.26961 61.9643 5.08961 61.9643 4.81961C61.9643 4.54961 62.1843 4.38961 62.4043 4.38961C62.6243 4.38961 62.8443 4.54961 62.8443 4.81961C62.8443 5.08961 62.6243 5.26961 62.4043 5.26961ZM62.7643 10.8496H62.0443V6.24961H62.7743L62.7643 10.8496ZM64.823 10.8496H64.103V4.34961H64.823V10.8496ZM69.8954 6.24961H70.6254V10.8496H69.8954V10.0196C69.5454 10.5696 68.9654 10.9296 68.1854 10.9296C66.8754 10.9296 65.9454 9.91961 65.9454 8.54961C65.9454 7.16961 66.8754 6.17961 68.1854 6.17961C68.9654 6.17961 69.5454 6.52961 69.8954 7.07961V6.24961ZM68.2754 10.2396C69.2654 10.2396 69.8954 9.52961 69.8954 8.54961C69.8954 7.56961 69.2654 6.86961 68.2754 6.86961C67.2954 6.86961 66.6454 7.56961 66.6454 8.54961C66.6454 9.52961 67.2954 10.2396 68.2754 10.2396ZM74.3064 6.17961C75.6164 6.17961 76.5564 7.16961 76.5564 8.54961C76.5564 9.91961 75.6164 10.9296 74.3064 10.9296C73.5264 10.9296 72.9464 10.5696 72.5964 10.0196V10.8496H71.8764V4.34961H72.5964V7.07961C72.9464 6.52961 73.5264 6.17961 74.3064 6.17961ZM74.2164 10.2396C75.1964 10.2396 75.8464 9.52961 75.8464 8.54961C75.8464 7.56961 75.1964 6.86961 74.2164 6.86961C73.2364 6.86961 72.5964 7.56961 72.5964 8.54961C72.5964 9.52961 73.2364 10.2396 74.2164 10.2396ZM78.3875 10.8496H77.6675V4.34961H78.3875V10.8496ZM81.7799 6.16961C83.0999 6.16961 83.9799 7.17961 83.9799 8.54961V8.77961H80.2099C80.2999 9.69961 80.9299 10.3096 81.8399 10.3096C82.5199 10.3096 82.9899 9.99961 83.2499 9.60961L83.7599 9.97961C83.3599 10.5696 82.6799 10.9396 81.8399 10.9396C80.4399 10.9396 79.5099 9.91961 79.5099 8.54961C79.5099 7.17961 80.3999 6.16961 81.7799 6.16961ZM81.7799 6.76961C80.8799 6.76961 80.3099 7.37961 80.2099 8.27961H83.3099C83.2099 7.40961 82.6399 6.76961 81.7799 6.76961ZM89.301 10.9396C87.921 10.9396 86.961 9.91961 86.961 8.54961C86.961 7.16961 87.921 6.16961 89.301 6.16961C90.681 6.16961 91.641 7.16961 91.641 8.54961C91.641 9.91961 90.681 10.9396 89.301 10.9396ZM89.301 10.2396C90.271 10.2396 90.911 9.51961 90.911 8.54961C90.911 7.57961 90.271 6.86961 89.301 6.86961C88.331 6.86961 87.681 7.57961 87.681 8.54961C87.681 9.51961 88.331 10.2396 89.301 10.2396ZM94.9553 6.17961C95.8753 6.17961 96.7853 6.71961 96.7853 8.01961V10.8496H96.0653V8.11961C96.0653 7.23961 95.4453 6.80961 94.7653 6.80961C94.0753 6.80961 93.4753 7.23961 93.4753 8.11961V10.8496H92.7553V6.24961H93.4753V6.86961C93.8253 6.38961 94.3853 6.17961 94.9553 6.17961ZM102.22 6.81961H101.12V9.64961C101.12 10.1396 101.42 10.2596 101.76 10.2596H102.17V10.8496H101.5C100.8 10.8496 100.39 10.4496 100.39 9.74961V6.81961H99.7503V6.24961H100.39V4.84961H101.12V6.24961H102.22V6.81961ZM105.414 6.17961C106.334 6.17961 107.244 6.71961 107.244 8.01961V10.8496H106.524V8.11961C106.524 7.23961 105.904 6.80961 105.224 6.80961C104.534 6.80961 103.934 7.23961 103.934 8.11961V10.8496H103.214V4.34961H103.934V6.86961C104.284 6.38961 104.844 6.17961 105.414 6.17961ZM110.637 6.16961C111.957 6.16961 112.837 7.17961 112.837 8.54961V8.77961H109.067C109.157 9.69961 109.787 10.3096 110.697 10.3096C111.377 10.3096 111.847 9.99961 112.107 9.60961L112.617 9.97961C112.217 10.5696 111.537 10.9396 110.697 10.9396C109.297 10.9396 108.367 9.91961 108.367 8.54961C108.367 7.17961 109.257 6.16961 110.637 6.16961ZM110.637 6.76961C109.737 6.76961 109.167 7.37961 109.067 8.27961H112.167C112.067 7.40961 111.497 6.76961 110.637 6.76961Z" fill="white"/>
<path d="M52.4718 32.0007L51.3018 29.1207H45.8658L44.6958 32.0007H43.2558L48.0618 20.3007H49.1058L53.9118 32.0007H52.4718ZM46.3698 27.8607H50.7798L48.5658 22.4067L46.3698 27.8607ZM59.8417 23.5947C62.1997 23.5947 63.8917 25.4127 63.8917 27.8787C63.8917 30.3627 62.1997 32.1447 59.8417 32.1447C58.4377 32.1447 57.3937 31.5147 56.7637 30.5067V35.3127H55.4677V23.7207H56.7637V25.2327C57.3937 24.2247 58.4377 23.5947 59.8417 23.5947ZM59.6797 30.9027C61.4437 30.9027 62.6137 29.6427 62.6137 27.8787C62.6137 26.1147 61.4437 24.8367 59.6797 24.8367C57.9157 24.8367 56.7637 26.1147 56.7637 27.8787C56.7637 29.6427 57.9157 30.9027 59.6797 30.9027ZM70.2655 23.5947C72.6235 23.5947 74.3155 25.4127 74.3155 27.8787C74.3155 30.3627 72.6235 32.1447 70.2655 32.1447C68.8615 32.1447 67.8175 31.5147 67.1875 30.5067V35.3127H65.8915V23.7207H67.1875V25.2327C67.8175 24.2247 68.8615 23.5947 70.2655 23.5947ZM70.1035 30.9027C71.8675 30.9027 73.0375 29.6427 73.0375 27.8787C73.0375 26.1147 71.8675 24.8367 70.1035 24.8367C68.3395 24.8367 67.1875 26.1147 67.1875 27.8787C67.1875 29.6427 68.3395 30.9027 70.1035 30.9027ZM79.5588 29.4987L80.6748 28.7607C81.0888 29.8587 82.5288 30.8487 84.4728 30.8487C86.4888 30.8487 87.3348 30.0927 87.3348 28.7427C87.3348 27.2127 85.0488 26.8527 83.9868 26.5467C82.8528 26.2407 79.9728 25.7547 79.9728 23.3427C79.9728 21.1467 81.8448 20.1027 84.3468 20.1027C86.5068 20.1027 88.2348 21.1467 88.6668 22.4247L87.5508 23.0907C87.2268 22.2267 85.8948 21.4527 84.2028 21.4527C82.4568 21.4527 81.5028 22.1367 81.5028 23.2887C81.5028 24.7287 83.5908 25.0347 84.7428 25.3407C85.7868 25.6467 88.8288 26.2587 88.8288 28.6887C88.8288 30.9927 87.1548 32.1987 84.3468 32.1987C81.8268 32.1987 80.1168 31.0287 79.5588 29.4987ZM94.6354 24.7467H92.6554V29.8407C92.6554 30.7227 93.1954 30.9387 93.8074 30.9387H94.5454V32.0007H93.3394C92.0794 32.0007 91.3414 31.2807 91.3414 30.0207V24.7467H90.1894V23.7207H91.3414V21.2007H92.6554V23.7207H94.6354V24.7467ZM99.9628 32.1627C97.4788 32.1627 95.7508 30.3267 95.7508 27.8607C95.7508 25.3767 97.4788 23.5767 99.9628 23.5767C102.447 23.5767 104.175 25.3767 104.175 27.8607C104.175 30.3267 102.447 32.1627 99.9628 32.1627ZM99.9628 30.9027C101.709 30.9027 102.861 29.6067 102.861 27.8607C102.861 26.1147 101.709 24.8367 99.9628 24.8367C98.2168 24.8367 97.0468 26.1147 97.0468 27.8607C97.0468 29.6067 98.2168 30.9027 99.9628 30.9027ZM107.477 25.2507C108.107 24.1167 109.223 23.6127 110.393 23.5947V24.8367C109.115 24.8547 107.477 25.5207 107.477 27.5367V32.0007H106.181V23.7207H107.477V25.2507ZM115.323 23.5767C117.699 23.5767 119.283 25.3947 119.283 27.8607V28.2747H112.497C112.659 29.9307 113.793 31.0287 115.431 31.0287C116.655 31.0287 117.501 30.4707 117.969 29.7687L118.887 30.4347C118.167 31.4967 116.943 32.1627 115.431 32.1627C112.911 32.1627 111.237 30.3267 111.237 27.8607C111.237 25.3947 112.839 23.5767 115.323 23.5767ZM115.323 24.6567C113.703 24.6567 112.677 25.7547 112.497 27.3747H118.077C117.897 25.8087 116.871 24.6567 115.323 24.6567Z" fill="white"/>
<path d="M18.9334 2.73755H3.02932C1.72644 2.73755 0.670654 3.7933 0.670654 5.09618V32.0073C0.670654 33.3102 1.72644 34.366 3.02932 34.366H18.9334C20.2363 34.366 21.2921 33.3102 21.2921 32.0073V5.09618C21.2921 3.81576 20.2138 2.73755 18.9334 2.73755Z" fill="white"/>
<path d="M20.1464 6.53394H1.79382V28.7278H20.1464V6.53394Z" fill="#404040"/>
<path d="M14.7328 4.15247H7.20758C6.91556 4.15247 6.646 4.39956 6.646 4.71405C6.646 5.02854 6.89309 5.27564 7.20758 5.27564H14.7328C15.0249 5.27564 15.2944 5.02854 15.2944 4.71405C15.2944 4.42203 15.0473 4.15247 14.7328 4.15247Z" fill="#6639A6"/>
<path d="M9.18457 31.4009C9.18457 30.4126 9.99326 29.5814 10.9816 29.5814C11.97 29.5814 12.8012 30.3901 12.8012 31.4009C12.8012 32.3893 11.9925 33.198 10.9816 33.198C9.99326 33.2205 9.18457 32.4118 9.18457 31.4009Z" fill="#6639A6"/>
</svg>
