<svg width="133" height="35" viewBox="0 0 133 35" fill="none" xmlns="http://www.w3.org/2000/svg">
<path d="M46.2564 5.4H46.9864V10H46.2564V9.17C45.9064 9.72 45.3264 10.08 44.5464 10.08C43.2364 10.08 42.3064 9.07 42.3064 7.7C42.3064 6.32 43.2364 5.33 44.5464 5.33C45.3264 5.33 45.9064 5.68 46.2564 6.23V5.4ZM44.6364 9.39C45.6264 9.39 46.2564 8.68 46.2564 7.7C46.2564 6.72 45.6264 6.02 44.6364 6.02C43.6564 6.02 43.0064 6.72 43.0064 7.7C43.0064 8.68 43.6564 9.39 44.6364 9.39ZM50.4374 5.33C51.3574 5.33 52.2674 5.87 52.2674 7.17V10H51.5474V7.27C51.5474 6.39 50.9274 5.96 50.2474 5.96C49.5574 5.96 48.9574 6.39 48.9574 7.27V10H48.2374V5.4H48.9574V6.02C49.3074 5.54 49.8674 5.33 50.4374 5.33ZM57.3404 3.5H58.0704V10H57.3404V9.17C56.9904 9.72 56.4104 10.08 55.6304 10.08C54.3204 10.08 53.3904 9.07 53.3904 7.7C53.3904 6.32 54.3204 5.33 55.6304 5.33C56.4104 5.33 56.9904 5.68 57.3404 6.23V3.5ZM55.7204 9.39C56.7104 9.39 57.3404 8.68 57.3404 7.7C57.3404 6.72 56.7104 6.02 55.7204 6.02C54.7404 6.02 54.0904 6.72 54.0904 7.7C54.0904 8.68 54.7404 9.39 55.7204 9.39ZM60.0414 6.25C60.3914 5.62 61.0114 5.34 61.6614 5.33V6.02C60.9514 6.03 60.0414 6.4 60.0414 7.52V10H59.3214V5.4H60.0414V6.25ZM64.4706 10.09C63.0906 10.09 62.1306 9.07 62.1306 7.7C62.1306 6.32 63.0906 5.32 64.4706 5.32C65.8506 5.32 66.8106 6.32 66.8106 7.7C66.8106 9.07 65.8506 10.09 64.4706 10.09ZM64.4706 9.39C65.4406 9.39 66.0806 8.67 66.0806 7.7C66.0806 6.73 65.4406 6.02 64.4706 6.02C63.5006 6.02 62.8506 6.73 62.8506 7.7C62.8506 8.67 63.5006 9.39 64.4706 9.39ZM68.3649 4.42C68.1449 4.42 67.9249 4.24 67.9249 3.97C67.9249 3.7 68.1449 3.54 68.3649 3.54C68.5849 3.54 68.8049 3.7 68.8049 3.97C68.8049 4.24 68.5849 4.42 68.3649 4.42ZM68.7249 10H68.0049V5.4H68.7349L68.7249 10ZM73.8736 3.5H74.6036V10H73.8736V9.17C73.5236 9.72 72.9436 10.08 72.1636 10.08C70.8536 10.08 69.9236 9.07 69.9236 7.7C69.9236 6.32 70.8536 5.33 72.1636 5.33C72.9436 5.33 73.5236 5.68 73.8736 6.23V3.5ZM72.2536 9.39C73.2436 9.39 73.8736 8.68 73.8736 7.7C73.8736 6.72 73.2436 6.02 72.2536 6.02C71.2736 6.02 70.6236 6.72 70.6236 7.7C70.6236 8.68 71.2736 9.39 72.2536 9.39ZM81.6665 5.4H82.3965V10H81.6665V9.17C81.3165 9.72 80.7365 10.08 79.9565 10.08C78.6465 10.08 77.7165 9.07 77.7165 7.7C77.7165 6.32 78.6465 5.33 79.9565 5.33C80.7365 5.33 81.3165 5.68 81.6665 6.23V5.4ZM80.0465 9.39C81.0365 9.39 81.6665 8.68 81.6665 7.7C81.6665 6.72 81.0365 6.02 80.0465 6.02C79.0665 6.02 78.4165 6.72 78.4165 7.7C78.4165 8.68 79.0665 9.39 80.0465 9.39ZM86.0776 5.33C87.3876 5.33 88.3276 6.34 88.3276 7.71C88.3276 9.09 87.3876 10.08 86.0776 10.08C85.2976 10.08 84.7176 9.73 84.3676 9.17V11.84H83.6476V5.4H84.3676V6.24C84.7176 5.68 85.2976 5.33 86.0776 5.33ZM85.9876 9.39C86.9676 9.39 87.6176 8.69 87.6176 7.71C87.6176 6.73 86.9676 6.02 85.9876 6.02C85.0076 6.02 84.3676 6.73 84.3676 7.71C84.3676 8.69 85.0076 9.39 85.9876 9.39ZM91.8686 5.33C93.1786 5.33 94.1186 6.34 94.1186 7.71C94.1186 9.09 93.1786 10.08 91.8686 10.08C91.0886 10.08 90.5086 9.73 90.1586 9.17V11.84H89.4386V5.4H90.1586V6.24C90.5086 5.68 91.0886 5.33 91.8686 5.33ZM91.7786 9.39C92.7586 9.39 93.4086 8.69 93.4086 7.71C93.4086 6.73 92.7586 6.02 91.7786 6.02C90.7986 6.02 90.1586 6.73 90.1586 7.71C90.1586 8.69 90.7986 9.39 91.7786 9.39ZM99.4315 10.09C98.0515 10.09 97.0915 9.07 97.0915 7.7C97.0915 6.32 98.0515 5.32 99.4315 5.32C100.812 5.32 101.772 6.32 101.772 7.7C101.772 9.07 100.812 10.09 99.4315 10.09ZM99.4315 9.39C100.402 9.39 101.042 8.67 101.042 7.7C101.042 6.73 100.402 6.02 99.4315 6.02C98.4615 6.02 97.8115 6.73 97.8115 7.7C97.8115 8.67 98.4615 9.39 99.4315 9.39ZM105.086 5.33C106.006 5.33 106.916 5.87 106.916 7.17V10H106.196V7.27C106.196 6.39 105.576 5.96 104.896 5.96C104.206 5.96 103.606 6.39 103.606 7.27V10H102.886V5.4H103.606V6.02C103.956 5.54 104.516 5.33 105.086 5.33Z" fill="white"/>
<path d="M51.4541 25.1807C51.3461 28.5107 49.2221 30.9047 45.8381 30.9047C42.3641 30.9047 39.9881 28.3847 39.9881 24.9107C39.9881 21.4367 42.3641 18.9167 45.8381 18.9167C47.9081 18.9167 49.5641 19.8167 50.5721 21.2567L49.4561 22.0487C48.6281 20.8967 47.3321 20.2847 45.8381 20.2847C43.1561 20.2847 41.3381 22.2287 41.3381 24.9107C41.3381 27.5927 43.1561 29.5367 45.8381 29.5367C48.0521 29.5367 49.6901 28.1147 49.9241 25.8647H45.7841V24.6047H51.4541V25.1807ZM57.5051 30.9227C55.0211 30.9227 53.2931 29.0867 53.2931 26.6207C53.2931 24.1367 55.0211 22.3367 57.5051 22.3367C59.9891 22.3367 61.7171 24.1367 61.7171 26.6207C61.7171 29.0867 59.9891 30.9227 57.5051 30.9227ZM57.5051 29.6627C59.2511 29.6627 60.4031 28.3667 60.4031 26.6207C60.4031 24.8747 59.2511 23.5967 57.5051 23.5967C55.7591 23.5967 54.5891 24.8747 54.5891 26.6207C54.5891 28.3667 55.7591 29.6627 57.5051 29.6627ZM67.6828 30.9227C65.1988 30.9227 63.4708 29.0867 63.4708 26.6207C63.4708 24.1367 65.1988 22.3367 67.6828 22.3367C70.1668 22.3367 71.8948 24.1367 71.8948 26.6207C71.8948 29.0867 70.1668 30.9227 67.6828 30.9227ZM67.6828 29.6627C69.4288 29.6627 70.5808 28.3667 70.5808 26.6207C70.5808 24.8747 69.4288 23.5967 67.6828 23.5967C65.9368 23.5967 64.7668 24.8747 64.7668 26.6207C64.7668 28.3667 65.9368 29.6627 67.6828 29.6627ZM80.7585 22.4807H82.0725V30.1487C82.0725 32.5247 80.3805 34.1807 77.7165 34.1807C76.2765 34.1807 75.0525 33.6227 74.2965 32.7227L75.1785 31.9847C75.8445 32.7227 76.7625 33.0467 77.7165 33.0467C79.2465 33.0467 80.7585 32.1287 80.7585 30.1487V29.2667C80.1285 30.2567 79.0845 30.9047 77.6805 30.9047C75.3225 30.9047 73.6485 29.0867 73.6485 26.6207C73.6485 24.1547 75.3225 22.3547 77.6805 22.3547C79.0845 22.3547 80.1285 22.9847 80.7585 23.9747V22.4807ZM77.8425 29.6627C79.6065 29.6627 80.7585 28.3847 80.7585 26.6207C80.7585 24.8567 79.6065 23.5967 77.8425 23.5967C76.0785 23.5967 74.9085 24.8567 74.9085 26.6207C74.9085 28.3847 76.0785 29.6627 77.8425 29.6627ZM85.6204 30.7607H84.3244V19.0607H85.6204V30.7607ZM91.7267 22.3367C94.1027 22.3367 95.6867 24.1547 95.6867 26.6207V27.0347H88.9007C89.0627 28.6907 90.1967 29.7887 91.8347 29.7887C93.0587 29.7887 93.9047 29.2307 94.3727 28.5287L95.2907 29.1947C94.5707 30.2567 93.3467 30.9227 91.8347 30.9227C89.3147 30.9227 87.6407 29.0867 87.6407 26.6207C87.6407 24.1547 89.2427 22.3367 91.7267 22.3367ZM91.7267 23.4167C90.1067 23.4167 89.0807 24.5147 88.9007 26.1347H94.4807C94.3007 24.5687 93.2747 23.4167 91.7267 23.4167ZM106.579 19.0607C108.343 19.0607 109.927 20.4647 109.927 22.6247C109.927 24.7847 108.343 26.1887 106.579 26.1887H102.655V30.7607H101.305V19.0607H106.579ZM106.381 24.8747C107.641 24.8747 108.559 23.8847 108.559 22.6247C108.559 21.3827 107.659 20.3927 106.381 20.3927H102.655V24.8747H106.381ZM113.113 30.7607H111.817V19.0607H113.113V30.7607ZM122.243 22.4807H123.557V30.7607H122.243V29.2667C121.613 30.2567 120.569 30.9047 119.165 30.9047C116.807 30.9047 115.133 29.0867 115.133 26.6207C115.133 24.1367 116.807 22.3547 119.165 22.3547C120.569 22.3547 121.613 22.9847 122.243 23.9747V22.4807ZM119.327 29.6627C121.109 29.6627 122.243 28.3847 122.243 26.6207C122.243 24.8567 121.109 23.5967 119.327 23.5967C117.563 23.5967 116.393 24.8567 116.393 26.6207C116.393 28.3847 117.563 29.6627 119.327 29.6627ZM131.515 22.4807H132.865L128.257 34.0727H126.979L128.275 30.7427L125.035 22.4807H126.385L128.941 28.9607L131.515 22.4807Z" fill="white"/>
<path d="M0 33.1189V0.142578L29.6517 16.159L0 33.1189Z" fill="#5CA9B3"/>
<path d="M0 0.142578L20.9808 21.1234L29.6517 16.159L0 0.142578Z" fill="#C8DB9B"/>
<path d="M20.8011 11.374L-3.05176e-05 33.1186L29.6517 16.1587L20.8011 11.374Z" fill="#AC5067"/>
<path d="M20.9811 21.1231L29.6519 16.1587L20.8014 11.374L16.129 16.2711L20.9811 21.1231Z" fill="#F4A676"/>
</svg>
