<svg width="38" height="38" viewBox="0 0 38 38" fill="none" xmlns="http://www.w3.org/2000/svg">
<rect width="37.024" height="37.024" rx="10.68" fill="#F6F6F6"/>
<path d="M14.863 15.244V24.272H12.4516V15.244H14.863ZM12.3014 12.8911C12.3014 12.5407 12.4238 12.2514 12.6686 12.0233C12.9133 11.7953 13.2415 11.6813 13.6531 11.6813C14.0592 11.6813 14.3846 11.7953 14.6293 12.0233C14.8797 12.2514 15.0048 12.5407 15.0048 12.8911C15.0048 13.2415 14.8797 13.5308 14.6293 13.7588C14.3846 13.9869 14.0592 14.1009 13.6531 14.1009C13.2415 14.1009 12.9133 13.9869 12.6686 13.7588C12.4238 13.5308 12.3014 13.2415 12.3014 12.8911ZM19.5435 17.1714V24.272H17.1405V15.244H19.3933L19.5435 17.1714ZM19.193 19.4409H18.5422C18.5422 18.7734 18.6284 18.1727 18.8009 17.6387C18.9733 17.0991 19.2153 16.6402 19.5268 16.262C19.8383 15.8782 20.2082 15.5861 20.6365 15.3859C21.0704 15.1801 21.5543 15.0772 22.0883 15.0772C22.5111 15.0772 22.8977 15.1383 23.2481 15.2607C23.5985 15.3831 23.8989 15.5778 24.1492 15.8448C24.4051 16.1118 24.5998 16.465 24.7333 16.9044C24.8724 17.3439 24.9419 17.8807 24.9419 18.5148V24.272H22.5222V18.5064C22.5222 18.1059 22.4666 17.7944 22.3553 17.5719C22.2441 17.3494 22.08 17.1937 21.863 17.1047C21.6517 17.0101 21.3902 16.9628 21.0787 16.9628C20.7561 16.9628 20.4752 17.0268 20.236 17.1548C20.0024 17.2827 19.8077 17.4607 19.6519 17.6888C19.5018 17.9113 19.3877 18.1727 19.3099 18.4731C19.232 18.7734 19.193 19.0961 19.193 19.4409Z" fill="#2A2F2F"/>
</svg>
