<svg width="114" height="28" viewBox="0 0 114 28" fill="none" xmlns="http://www.w3.org/2000/svg">
<g id="Social media icon">
<g id="Icon">
<path id="Fill" d="M107.716 0H92.285C88.814 0 86.0002 2.81377 86.0002 6.28472V21.7153C86.0002 25.1862 88.814 28 92.285 28H107.716C111.186 28 114 25.1862 114 21.7153V6.28472C114 2.81377 111.186 0 107.716 0Z" fill="#F2F2F2"/>
<g id="Icon_2">
<path d="M96.9066 12.3151H94.6285V18.9866H96.9066V12.3151Z" fill="#313131"/>
<path d="M96.5236 9.20164C96.3065 9.07017 96.0513 9 95.7903 9C95.6162 9 95.4437 9.03124 95.2829 9.09194C95.1221 9.15264 94.9761 9.24159 94.8533 9.35367C94.7305 9.46576 94.6334 9.59878 94.5674 9.74507C94.5015 9.89136 94.468 10.048 94.469 10.2061C94.4705 10.443 94.5493 10.6742 94.6954 10.8705C94.8415 11.0668 95.0484 11.2194 95.2899 11.3091C95.5315 11.3988 95.7969 11.4216 96.0527 11.3745C96.3085 11.3275 96.5433 11.2127 96.7273 11.0448C96.9113 10.8768 97.0364 10.6631 97.0868 10.4306C97.1372 10.1982 97.1105 9.95744 97.0103 9.73872C96.9101 9.51999 96.7407 9.3331 96.5236 9.20164Z" fill="#313131"/>
<path d="M100.563 12.3147H98.3688L98.3612 19H100.639V15.6987C100.639 14.8303 100.822 13.9895 102.006 13.9895C103.191 13.9895 103.191 14.9888 103.191 15.7607V18.9862H105.469V15.3265C105.469 13.5277 105.006 12.1493 102.728 12.1493C102.293 12.1339 101.863 12.2258 101.482 12.4151C101.1 12.6045 100.783 12.8842 100.563 13.2245V12.3147Z" fill="#313131"/>
</g>
</g>
<g id="Icon_3">
<path id="Fill_2" d="M71.0002 24.1111C71.0002 25.1425 70.5905 26.1317 69.8612 26.861C69.1319 27.5903 68.1428 28 67.1114 28H46.8891C45.8577 28 44.8686 27.5903 44.1393 26.861C43.41 26.1317 43.0002 25.1425 43.0002 24.1111V3.88889C43.0002 2.85749 43.41 1.86834 44.1393 1.13903C44.8686 0.409721 45.8577 0 46.8891 0H67.1114C68.1428 0 69.1319 0.409721 69.8612 1.13903C70.5905 1.86834 71.0002 2.85749 71.0002 3.88889V24.1111Z" fill="#F2F2F2"/>
<path id="Icon_4" d="M62.3499 11.0042C61.9523 11.1894 61.4488 11.3633 60.9976 11.4211C61.4565 11.1349 62.1844 10.5391 62.3499 10C61.9212 10.2648 61.1459 10.5476 60.6401 10.6499C60.2363 10.1999 59.6602 10 59.0219 10C57.7959 10 56.9408 11.0918 56.9408 12.3684V13.3158C55.1377 13.3158 53.3798 11.8725 52.2858 10.4737C52.088 10.8262 51.9841 11.2283 51.9851 11.6375C51.9851 12.4992 52.7384 13.3736 53.3347 13.7895C52.9709 13.7776 52.2822 13.4858 51.9824 13.3158V13.3428C51.9824 14.464 52.7311 15.2252 53.7458 15.4374C53.5605 15.4909 53.3347 15.6842 52.4656 15.6842C52.7478 16.6008 54.1664 17.0854 55.1377 17.1053C54.3778 17.7244 53.0228 18.0526 51.9824 18.0526C51.8026 18.0526 51.7052 18.0631 51.5317 18.0417C52.5134 18.6954 53.8846 19 55.1377 19C59.2202 19 61.4483 15.7231 61.4483 12.6668C61.4483 12.5664 61.4452 12.2301 61.4402 12.1316C61.8766 11.8085 62.0533 11.4703 62.3499 11.0042Z" fill="#313131"/>
</g>
<g id="Icon_5">
<path id="Fill_3" d="M24.5002 0H3.50024C1.56999 0 0.000244141 1.56975 0.000244141 3.5V24.5C0.000244141 26.4303 1.56999 28 3.50024 28H24.5002C26.4305 28 28.0002 26.4303 28.0002 24.5V3.5C28.0002 1.56975 26.4305 0 24.5002 0Z" fill="#F2F2F2"/>
<path id="Icon_6" fill-rule="evenodd" clip-rule="evenodd" d="M18.0002 12.6154H15.6669V10.7692C15.6669 10.2597 16.085 10.3077 16.6002 10.3077H17.5336V8H15.6669C14.9243 8 14.2121 8.29176 13.687 8.81109C13.1619 9.33042 12.8669 10.0348 12.8669 10.7692V12.6154H11.0002V14.9231H12.8669V20H15.6669V14.9231H17.0669L18.0002 12.6154Z" fill="#313131"/>
</g>
</g>
</svg>
